<svg xmlns="http://www.w3.org/2000/svg" class="rank-insignia material-6" viewBox="0 0 80 86" role="img" aria-label="Arecibo" style="color:#097d0f" width="320" height="344"><path d="M24 12 40 5 56 12 69 29 64 53 40 73 16 53 11 29Z" fill="currentColor" fill-opacity=".17" stroke="currentColor" stroke-width="1.4"/><path d="M40 16 58 27 40 38 22 27Z" fill="currentColor" fill-opacity=".48"/><path d="M22 27v23l18 14V38Z" fill="currentColor" fill-opacity=".1"/><path d="M58 27v23L40 64V38Z" fill="currentColor" fill-opacity=".28"/><path d="m22 27 18 11 18-11M40 38v26" fill="none" stroke="currentColor" stroke-opacity=".5"/><path d="M20 29 9 24l4 26 12 10M60 29l11-5-4 26-12 10" fill="none" stroke="currentColor" stroke-width="1.4"/><path d="m25 15 2-10 13 6L53 5l2 10" fill="none" stroke="currentColor" stroke-width="1.5"/><path d="m29 46 11-21 11 21-11-6Zm3 5 8 7 8-7-8 2Z" fill="currentColor"/><path d="m27.5 78 1.5 2-1.5 2-1.5-2Z" fill="currentColor"/><path d="m32.5 78 1.5 2-1.5 2-1.5-2Z" fill="currentColor"/><path d="m37.5 78 1.5 2-1.5 2-1.5-2Z" fill="currentColor"/><path d="m42.5 78 1.5 2-1.5 2-1.5-2Z" fill="currentColor"/><path d="m47.5 78 1.5 2-1.5 2-1.5-2Z" fill="currentColor"/><path d="m52.5 78 1.5 2-1.5 2-1.5-2Z" fill="currentColor"/></svg>
