<svg xmlns="http://www.w3.org/2000/svg" viewBox="0 0 80 80" role="img" aria-label="Shadow" style="color:#5d6818" width="320" height="320"><title>Shadow</title><circle cx="40" cy="40" r="35" fill="currentColor" fill-opacity=".06" stroke="currentColor" stroke-width="1.4"/><path d="M40 2.5v6M40 71.5v6M2.5 40h6M71.5 40h6" fill="none" stroke="currentColor" stroke-width="1.4" stroke-linecap="round" stroke-linejoin="round"/><path d="M67.6 15.3l3.2 3.2-3.2 3.2-3.2-3.2Z" fill="currentColor"/><path d="M40 24.51A17 17 0 1 1 40 55.49A17 17 0 0 0 40 24.51Z" fill="currentColor" fill-opacity="0.1"/><path d="M40 24.51A17 17 0 1 1 40 55.49" fill="none" stroke="currentColor" stroke-width="1.4" stroke-linecap="round" stroke-linejoin="round"/><path d="M40 24.51A17 17 0 0 0 40 55.49" fill="none" stroke="currentColor" stroke-width="1" stroke-linecap="round" stroke-linejoin="round" stroke-opacity=".5" stroke-dasharray="1.5 3"/><path d="M33 23a17 17 0 1 0 0 34a17 17 0 1 0 0-34Z" fill="currentColor" fill-opacity="0.28" stroke="currentColor" stroke-width="1.4" stroke-linejoin="round"/></svg>
