<svg xmlns="http://www.w3.org/2000/svg" width="720" height="240" viewBox="0 0 720 240" fill="none"><defs><clipPath id="disc"><circle r="64" /></clipPath><pattern id="scan" width="4" height="4" patternUnits="userSpaceOnUse"><path d="M0 .5H4" stroke="#e7a17e" stroke-opacity=".08"/></pattern></defs><g stroke="#e7a17e" stroke-width="1" opacity=".15"><path d="M412 23h31m-31 0v21M655 23h29v21M412 217h31m-31 0v-21M655 217h29v-21M423 120h14m222 0h14M548 23v13m0 168v13"/><path d="M351 188 389 188 409 168M656 74h31l15-15"/></g><rect x="374" y="43" width="3" height="3" fill="#e7a17e" opacity=".35"/><rect x="409" y="168" width="2" height="2" fill="#e7a17e" opacity=".35"/><rect x="454" y="211" width="2" height="2" fill="#e7a17e" opacity=".35"/><rect x="654" y="44" width="3" height="3" fill="#e7a17e" opacity=".35"/><rect x="683" y="177" width="2" height="2" fill="#e7a17e" opacity=".35"/><rect x="379" y="111" width="2" height="2" fill="#e7a17e" opacity=".35"/><rect x="618" y="207" width="3" height="3" fill="#e7a17e" opacity=".35"/><g transform="translate(548 120)" color="#e7a17e" stroke="currentColor" stroke-width="1.6" opacity=".8"><circle r="66" fill="url(#scan)" stroke="none"/><path d="M-48-49-11-67 34-56 61-22 66 16 40 52-4 67-49 44-67 7Z" fill="currentColor" fill-opacity=".07"/><path d="M-48-49-20-12-67 7M-11-67-20-12 24-23 34-56M61-22 24-23 41 19 66 16M40 52 41 19-5 28-4 67M-49 44-5 28-20-12M24-23-5 28"/><g transform="rotate(-34)"><ellipse rx="95" ry="72" stroke-dasharray="4 10"/></g><path d="M-88-29-80-34-74-26-80-19Z M76 49l10 2 4 10-9 6-9-10Z"/></g><g fill="#e7a17e" opacity=".45"><path d="M425 222h13v3h-13zM442 222h6v3h-6zM452 222h3v3h-3z"/></g></svg>
